<svg width="192" height="192" viewBox="0 0 192 192" fill="none" xmlns="http://www.w3.org/2000/svg">
  <!-- Background Circle -->
  <circle cx="96" cy="96" r="96" fill="#2563eb"/>
  
  <!-- Construction Helmet -->
  <path d="M96 40C76.1177 40 60 56.1177 60 76V100C60 119.882 76.1177 136 96 136C115.882 136 132 119.882 132 100V76C132 56.1177 115.882 40 96 40Z" fill="#ffffff"/>
  
  <!-- Helmet Rim -->
  <ellipse cx="96" cy="136" rx="40" ry="8" fill="#ffffff" opacity="0.8"/>
  
  <!-- Helmet Reflection -->
  <path d="M70 70C70 55.64 81.64 44 96 44C110.36 44 122 55.64 122 70V85C122 85 108 75 96 75C84 75 70 85 70 85V70Z" fill="#e2e8f0" opacity="0.6"/>
  
  <!-- Tools - Hammer -->
  <rect x="48" y="120" width="4" height="24" fill="#ffffff" transform="rotate(-45 50 132)"/>
  <rect x="40" y="112" width="16" height="8" rx="2" fill="#ffffff" transform="rotate(-45 48 116)"/>
  
  <!-- Tools - Wrench -->
  <rect x="140" y="120" width="4" height="20" fill="#ffffff" transform="rotate(30 142 130)"/>
  <circle cx="142" cy="116" r="4" fill="#ffffff"/>
  <circle cx="142" cy="116" r="2" fill="#2563eb"/>
  
  <!-- Safety Stripe -->
  <rect x="60" y="88" width="72" height="4" fill="#fbbf24"/>
</svg>